<svg width="20" height="20" viewBox="0 0 20 20" fill="none" xmlns="http://www.w3.org/2000/svg">
<rect x="0.5" y="0.5" width="19" height="19" rx="3.5" fill="#980000" stroke="#980000"/>
<path d="M15.4519 5.96289C15.3763 5.88429 15.2864 5.82191 15.1873 5.77933C15.0882 5.73676 14.9819 5.71484 14.8746 5.71484C14.7672 5.71484 14.6609 5.73676 14.5618 5.77933C14.4627 5.82191 14.3728 5.88429 14.2972 5.96289L8.23886 12.2186L5.69355 9.58547C5.61506 9.50728 5.5224 9.44581 5.42087 9.40455C5.31934 9.36329 5.21092 9.34305 5.10181 9.345C4.99269 9.34694 4.88502 9.37103 4.78493 9.41589C4.68484 9.46075 4.5943 9.5255 4.51848 9.60644C4.44266 9.68737 4.38304 9.78292 4.34303 9.88762C4.30302 9.99232 4.28339 10.1041 4.28528 10.2166C4.28717 10.3292 4.31053 10.4402 4.35403 10.5434C4.39753 10.6466 4.46032 10.74 4.53881 10.8182L7.66149 14.0382C7.73709 14.1168 7.82703 14.1792 7.92613 14.2218C8.02522 14.2644 8.13151 14.2863 8.23886 14.2863C8.34622 14.2863 8.45251 14.2644 8.5516 14.2218C8.6507 14.1792 8.74064 14.1168 8.81623 14.0382L15.4519 7.19557C15.5345 7.11705 15.6004 7.02174 15.6454 6.91567C15.6905 6.80959 15.7137 6.69504 15.7137 6.57923C15.7137 6.46342 15.6905 6.34887 15.6454 6.24279C15.6004 6.13672 15.5345 6.04141 15.4519 5.96289Z" fill="white"/>
</svg>
