<svg width="24" height="24" viewBox="0 0 24 24" fill="none" xmlns="http://www.w3.org/2000/svg">
<path d="M1.5 12C1.5 6.20101 6.20101 1.5 12 1.5C17.799 1.5 22.5 6.20101 22.5 12C22.5 17.799 17.799 22.5 12 22.5C6.20101 22.5 1.5 17.799 1.5 12ZM11.3437 2.91298C10.4651 3.18168 9.59106 3.9901 8.86673 5.34823C8.67888 5.70045 8.50527 6.08304 8.34825 6.49224C9.27378 6.69869 10.2813 6.83022 11.3437 6.86885V2.91298ZM7.07618 6.14551C7.26375 5.6414 7.47539 5.16794 7.70864 4.73059C7.94321 4.29077 8.20507 3.87879 8.49203 3.50596C7.36627 3.9714 6.35318 4.65413 5.50503 5.50187C5.97948 5.74316 6.506 5.95958 7.07618 6.14551ZM6.10484 11.3437C6.15248 9.93936 6.3521 8.60407 6.67759 7.39613C5.93011 7.15296 5.24033 6.85896 4.62435 6.52089C3.60841 7.88626 2.96263 9.5434 2.83557 11.3437H6.10484ZM7.94266 7.74598C7.65066 8.8322 7.46527 10.0483 7.41814 11.3437H11.3437V8.18212C10.1496 8.14159 9.00366 7.99107 7.94266 7.74598ZM12.6562 8.18212V11.3437H16.5819C16.5347 10.0483 16.3493 8.8322 16.0573 7.74598C14.9963 7.99107 13.8504 8.14159 12.6562 8.18212ZM7.41814 12.6562C7.46527 13.9517 7.65066 15.1678 7.94266 16.254C9.00366 16.0089 10.1496 15.8584 11.3437 15.8179V12.6562H7.41814ZM12.6562 12.6562V15.8179C13.8504 15.8584 14.9963 16.0089 16.0573 16.254C16.3493 15.1678 16.5347 13.9517 16.5819 12.6562H12.6562ZM8.34825 17.5077C8.50527 17.9169 8.67888 18.2995 8.86673 18.6518C9.59106 20.0099 10.4651 20.8183 11.3437 21.087V17.1311C10.2813 17.1698 9.27378 17.3013 8.34825 17.5077ZM8.49203 20.494C8.20507 20.1212 7.94321 19.7092 7.70864 19.2694C7.47539 18.832 7.26375 18.3586 7.07618 17.8545C6.506 18.0404 5.97948 18.2568 5.50503 18.4981C6.35318 19.3459 7.36627 20.0286 8.49203 20.494ZM6.67759 16.6039C6.3521 15.3959 6.15248 14.0606 6.10484 12.6562H2.83557C2.96263 14.4566 3.60841 16.1137 4.62435 17.4791C5.24033 17.141 5.93011 16.847 6.67759 16.6039ZM15.508 20.494C16.6337 20.0286 17.6468 19.3459 18.495 18.4981C18.0205 18.2568 17.494 18.0404 16.9238 17.8545C16.7362 18.3586 16.5246 18.832 16.2913 19.2694C16.0568 19.7092 15.7949 20.1212 15.508 20.494ZM12.6562 17.1311V21.087C13.5349 20.8183 14.4089 20.0099 15.1333 18.6518C15.3211 18.2995 15.4947 17.9169 15.6517 17.5077C14.7262 17.3013 13.7187 17.1698 12.6562 17.1311ZM17.3224 16.6039C18.0699 16.847 18.7597 17.141 19.3756 17.4791C20.3916 16.1137 21.0374 14.4566 21.1644 12.6562H17.8951C17.8475 14.0606 17.6479 15.3959 17.3224 16.6039ZM21.1644 11.3437C21.0374 9.5434 20.3916 7.88626 19.3756 6.52089C18.7597 6.85896 18.0699 7.15296 17.3224 7.39613C17.6479 8.60407 17.8475 9.93936 17.8951 11.3437H21.1644ZM16.2913 4.73059C16.5246 5.16794 16.7362 5.6414 16.9238 6.14551C17.494 5.95958 18.0205 5.74316 18.495 5.50187C17.6468 4.65413 16.6337 3.9714 15.508 3.50596C15.7949 3.87879 16.0568 4.29077 16.2913 4.73059ZM15.6517 6.49224C15.4947 6.08304 15.3211 5.70045 15.1333 5.34823C14.4089 3.9901 13.5349 3.18168 12.6562 2.91298V6.86885C13.7187 6.83022 14.7262 6.69869 15.6517 6.49224Z" fill="black"/>
</svg>
