<svg width="24" height="24" viewBox="0 0 24 24" fill="none" xmlns="http://www.w3.org/2000/svg">
<path d="M15.6 3.2998C14.2 3.2998 13 3.7998 12 4.7998L9.8 6.9998C9.4 7.3998 9.4 7.9998 9.8 8.3998C10.2 8.7998 10.8 8.7998 11.2 8.3998L13.4 6.1998C14.6 4.9998 16.6 4.9998 17.8 6.1998C18.4 6.7998 18.7 7.5998 18.7 8.3998C18.7 9.1998 18.4 9.9998 17.8 10.5998L15.6 12.7998C15.2 13.1998 15.2 13.7998 15.6 14.1998C15.8 14.3998 16.1 14.4998 16.3 14.4998C16.5 14.4998 16.8 14.3998 17 14.1998L19.2 11.9998C20.2 10.9998 20.7 9.7998 20.7 8.3998C20.7 6.9998 20.2 5.7998 19.2 4.7998C18.2 3.7998 17 3.2998 15.6 3.2998Z" fill="black"/>
<path d="M8.3998 11.2996C8.7998 10.8996 8.7998 10.2996 8.3998 9.89961C7.9998 9.49961 7.3998 9.49961 6.9998 9.89961L4.7998 11.9996C3.7998 12.9996 3.2998 14.1996 3.2998 15.5996C3.2998 16.9996 3.7998 18.1996 4.7998 19.1996C5.7998 20.1996 6.9998 20.6996 8.3998 20.6996C9.7998 20.6996 10.9998 20.1996 11.9998 19.1996L14.1998 16.9996C14.5998 16.5996 14.5998 15.9996 14.1998 15.5996C13.7998 15.1996 13.1998 15.1996 12.7998 15.5996L10.5998 17.7996C9.39981 18.9996 7.3998 18.9996 6.1998 17.7996C5.5998 17.1996 5.2998 16.3996 5.2998 15.5996C5.2998 14.7996 5.5998 13.9996 6.1998 13.3996L8.3998 11.2996Z" fill="black"/>
<path d="M9.0998 14.8994C9.2998 15.0994 9.5998 15.1994 9.7998 15.1994C9.9998 15.1994 10.2998 15.0994 10.4998 14.8994L14.7998 10.5994C15.1998 10.1994 15.1998 9.59941 14.7998 9.19941C14.3998 8.79941 13.7998 8.79941 13.3998 9.19941L9.0998 13.4994C8.6998 13.7994 8.6998 14.4994 9.0998 14.8994Z" fill="black"/>
</svg>
