<svg width="20" height="20" viewBox="0 0 20 20" fill="none" xmlns="http://www.w3.org/2000/svg">
<path d="M6.00033 16.6667H2.66699V6.66667H6.00033V16.6667ZM4.33433 5.33333C3.41233 5.33333 2.66699 4.586 2.66699 3.666C2.66699 2.746 3.41366 2 4.33433 2C5.25299 2 6.00033 2.74733 6.00033 3.666C6.00033 4.586 5.25299 5.33333 4.33433 5.33333ZM18.0003 16.6667H14.7957V11.8C14.7957 10.6393 14.7737 9.14667 13.1297 9.14667C11.461 9.14667 11.2043 10.4107 11.2043 11.716V16.6667H8.00033V6.65933H11.0763V8.02667H11.1197C11.5477 7.24 12.5937 6.41067 14.1537 6.41067C17.4003 6.41067 18.0003 8.48333 18.0003 11.178V16.6667Z" fill="#5D5D5D"/>
</svg>
