<svg width="20" height="20" viewBox="0 0 20 20" fill="none" xmlns="http://www.w3.org/2000/svg">
<path d="M19.5818 4.93637C19.3513 4.07532 18.6746 3.39867 17.8136 3.16818C16.2545 2.75 9.99996 2.75 9.99996 2.75C9.99996 2.75 3.74547 2.75 2.18636 3.16818C1.32532 3.39867 0.648666 4.07532 0.418176 4.93637C1.25176e-07 6.49547 0 9.75033 0 9.75033C0 9.75033 1.25176e-07 13.0052 0.418176 14.5643C0.648666 15.4254 1.32532 16.102 2.18636 16.3325C3.74547 16.7507 9.99996 16.7507 9.99996 16.7507C9.99996 16.7507 16.2545 16.7507 17.8136 16.3325C18.6746 16.102 19.3513 15.4254 19.5818 14.5643C20 13.0052 20 9.75033 20 9.75033C20 9.75033 19.9983 6.49547 19.5818 4.93637Z" fill="#5D5D5D"/>
<path d="M7.99805 12.7503L13.194 9.75066L7.99805 6.75098V12.7503Z" fill="white"/>
</svg>
