<svg width="147" height="24" viewBox="0 0 147 24" fill="none" xmlns="http://www.w3.org/2000/svg">
<path d="M42.2033 22.926H25.9727V0H30.1719V19.1582H42.6117L42.2033 22.926Z" fill="black"/>
<path d="M47.812 2.73275C47.812 3.98954 46.9032 4.90045 45.6492 4.90045C44.3952 4.90045 43.4863 3.98954 43.4863 2.73275C43.4863 1.47595 44.3636 0.533356 45.6492 0.533356C46.9348 0.533356 47.812 1.47595 47.812 2.73275ZM43.7682 6.6906H47.5302V22.9286H43.7682V6.6906Z" fill="black"/>
<path d="M50.1934 22.926V6.90975L51.7292 6.56387C52.3878 7.06553 52.9832 7.94476 53.3599 8.76062C54.4559 7.37973 56.4633 6.34208 58.9686 6.34208C62.7912 6.34208 66.2396 8.82399 66.2396 13.0934V22.9233H62.6673V13.6901C62.6673 11.3666 60.6625 9.70057 58.4997 9.70057C56.6819 9.70057 53.8631 11.0815 53.8631 12.5284V22.9233H50.196L50.1934 22.926Z" fill="black"/>
<path d="M68.9326 22.926V6.90975L70.4685 6.56387C71.1271 7.06553 71.7225 7.94476 72.0992 8.76062C73.1951 7.37973 75.2025 6.34208 77.7079 6.34208C81.5304 6.34208 84.9789 8.82399 84.9789 13.0934V22.9233H81.4066V13.6901C81.4066 11.3666 79.4018 9.70057 77.2389 9.70057C75.4212 9.70057 72.6024 11.0815 72.6024 12.5284V22.9233H68.9353L68.9326 22.926Z" fill="black"/>
<path d="M99.0776 9.20153C100.174 7.37971 102.65 6.3447 104.937 6.3447C109.136 6.3447 112.521 9.2649 112.521 13.4102C112.521 15.3271 111.235 15.9238 109.639 15.9238H100.49C100.677 18.279 102.998 20.0057 105.034 20.0057C106.725 20.0057 108.575 19.0631 109.296 17.5872L111.928 19.3457C110.456 21.6692 108.356 23.2401 104.939 23.2401C102.621 23.2401 100.363 22.3292 99.0486 20.2883C97.9817 22.2051 95.695 23.3035 92.9368 23.3035C88.3002 23.3035 86.4824 21.1992 86.4824 18.2156C86.4824 12.0267 94.3172 13.6294 96.9174 12.3752V11.8102C96.4168 10.2075 95.3499 9.7692 93.5954 9.7692C91.4641 9.7692 90.4314 10.4927 89.6148 11.496L87.5467 9.07744C88.3924 7.66486 90.2101 6.31565 93.3425 6.31565C95.911 6.31565 98.0106 7.28994 99.0776 9.20417M96.9463 18.0598V15.0763C94.9099 15.9872 90.1469 15.1713 90.1469 18.2182C90.1469 19.1925 90.7423 20.1351 93.2792 20.1351C94.8467 20.1351 96.3826 19.2876 96.9463 18.0625M100.645 13.1937H109.199C108.822 11.2768 107.289 9.64511 104.968 9.64511C102.647 9.64511 100.927 11.1527 100.645 13.1937Z" fill="black"/>
<path d="M129.816 6.69059V22.7702L128.281 23.0844C127.654 22.5827 127.058 21.7352 126.682 20.885C125.617 22.3292 123.641 23.3035 121.041 23.3035C117.282 23.3035 114.021 20.8533 114.021 16.5522V6.69059H117.624V15.9555C117.624 18.279 119.474 19.945 121.668 19.945C123.423 19.945 126.181 18.5008 126.181 17.1489V6.69059H129.816Z" fill="black"/>
<path d="M146.049 9.54742L143.196 11.5567C142.756 10.6458 141.505 9.54742 138.934 9.54742C137.303 9.54742 135.894 10.0808 135.894 11.1501C135.894 12.2194 137.271 12.5627 138.965 12.8769C143.32 13.6927 146.518 14.2578 146.518 18.0915C146.518 22.2051 142.351 23.2428 139.155 23.2428C135.456 23.2428 132.574 21.7668 131.32 19.4434L134.424 17.7166C135.051 18.7226 136.492 20.0401 139 20.0401C140.63 20.0401 143.104 19.4434 143.104 18.2499C143.104 17.2757 142.1 16.8981 140.846 16.5865C136.302 15.4882 132.479 15.174 132.479 11.0577C132.479 7.75992 134.893 6.41071 139.155 6.41071C142.885 6.41071 145.454 7.95002 146.049 9.55006" fill="black"/>
<path d="M18.5679 8.63387C17.5905 6.32622 15.8281 4.41462 13.6073 3.2476C11.7974 2.29708 9.76892 1.87727 7.74041 2.03305L7.61133 0.337961C9.95596 0.158419 12.3032 0.644239 14.395 1.74261C16.9609 3.08918 18.9973 5.30177 20.1275 7.9685L18.5679 8.63387Z" fill="black"/>
<path d="M12.7721 10.96C12.3427 10.02 11.6288 9.26753 10.7146 8.78699C9.948 8.38302 9.08654 8.20348 8.22508 8.26949L8.09863 6.5744C9.27622 6.48727 10.4512 6.73282 11.4997 7.282C12.751 7.93945 13.7231 8.96653 14.3132 10.2497L12.7721 10.96Z" fill="black"/>
<path d="M8.68334 5.1856C11.8078 5.1856 14.5028 7.06552 15.6988 9.75601L17.2821 9.12761C16.8184 8.06092 16.1572 7.08136 15.3115 6.23645C13.5412 4.46215 11.186 3.48523 8.68334 3.48523C8.39618 3.48523 8.10903 3.49844 7.82715 3.52484L7.96677 5.21993C8.20387 5.19881 8.44097 5.1856 8.68334 5.1856Z" fill="black"/>
<path d="M1.7573 18.8678V16.0928L6.3728 14.6564C6.25162 14.5033 6.14624 14.3396 6.0593 14.168L1.20143 15.6809V18.8678C0.669282 18.9945 0.271484 19.4724 0.271484 20.0453C0.271484 20.7133 0.814175 21.2573 1.48068 21.2573C2.14719 21.2573 2.68988 20.7133 2.68988 20.0453C2.68988 19.4724 2.29208 18.9945 1.75993 18.8678H1.7573ZM1.47805 20.7001C1.11977 20.7001 0.827347 20.4071 0.827347 20.048C0.827347 19.6889 1.11977 19.3958 1.47805 19.3958C1.83633 19.3958 2.12875 19.6889 2.12875 20.048C2.12875 20.4071 1.83633 20.7001 1.47805 20.7001Z" fill="black"/>
<path d="M7.90056 20.5365V15.6334C7.82943 15.6149 7.75566 15.5964 7.68453 15.5726C7.56599 15.533 7.45271 15.4855 7.34206 15.4301V20.5365C6.80991 20.6632 6.41211 21.1437 6.41211 21.714C6.41211 22.382 6.9548 22.926 7.62131 22.926C8.28782 22.926 8.83051 22.382 8.83051 21.714C8.83051 21.1411 8.43271 20.6632 7.90056 20.5365ZM7.62131 22.3688C7.26303 22.3688 6.97061 22.0758 6.97061 21.7167C6.97061 21.3576 7.26303 21.0645 7.62131 21.0645C7.97959 21.0645 8.27201 21.3576 8.27201 21.7167C8.27201 22.0758 7.97959 22.3688 7.62131 22.3688Z" fill="black"/>
<path d="M7.01868 15.2452C6.85798 15.1396 6.71045 15.0182 6.57873 14.8835L5.31421 17.2968C5.15351 17.2176 4.97437 17.1727 4.78732 17.1727C4.12082 17.1727 3.57812 17.7166 3.57812 18.3846C3.57812 19.0526 4.12082 19.5965 4.78732 19.5965C5.45383 19.5965 5.99652 19.0526 5.99652 18.3846C5.99652 18.1126 5.90432 17.8618 5.75416 17.6611L7.02131 15.2452H7.01868ZM4.78469 19.0394C4.42641 19.0394 4.13399 18.7463 4.13399 18.3872C4.13399 18.0282 4.42641 17.7351 4.78469 17.7351C5.14297 17.7351 5.43539 18.0282 5.43539 18.3872C5.43539 18.7463 5.14297 19.0394 4.78469 19.0394Z" fill="black"/>
<path d="M9.43897 10.2313C9.14655 10.1362 8.8515 10.0887 8.56171 10.0887C7.38412 10.0887 6.2882 10.8386 5.89831 12.0214C5.65594 12.7607 5.73498 13.5264 6.05901 14.168C6.14595 14.3396 6.25132 14.5033 6.37251 14.6565C6.43573 14.7357 6.50423 14.8096 6.57536 14.8835C6.70971 15.0182 6.85724 15.137 7.0153 15.2453C7.11805 15.3139 7.22606 15.3746 7.33934 15.4301C7.44998 15.4829 7.56326 15.5331 7.68181 15.5727C7.75294 15.5964 7.82671 15.6175 7.89784 15.6334C8.11913 15.6888 8.34042 15.7126 8.55908 15.7126C9.73666 15.7126 10.8326 14.9627 11.2225 13.7799C11.7072 12.3066 10.9063 10.7171 9.43634 10.2313H9.43897Z" fill="black"/>
<path d="M5.26094 12.1745L1.69393 12.1613V11.7098C1.69393 8.16125 4.10443 5.16712 7.36847 4.28261L7.16299 2.57696C5.5033 2.97565 3.98061 3.82583 2.74507 5.06679C0.974735 6.84108 0 9.20154 0 11.7098V13.8538L5.3268 13.8723C5.16083 13.3204 5.13712 12.7396 5.26357 12.1719" fill="black"/>
<path d="M18.7438 11.4432C18.7254 10.7435 18.6279 10.057 18.4619 9.39163L16.8681 10.028C16.9893 10.5692 17.0525 11.1316 17.0525 11.7098V11.9712L18.8913 14.6802L17.15 15.3086L15.838 20.114H12.2078L9.87898 16.0215C9.47064 16.1958 9.02279 16.2908 8.55913 16.2908C8.39053 16.2908 8.22456 16.2776 8.05859 16.2512L11.2225 21.8144H17.1315L18.5515 16.6103L21.5205 15.5383L18.7412 11.4432H18.7438Z" fill="black"/>
</svg>
