<svg width="40" height="40" viewBox="0 0 40 40" fill="none" xmlns="http://www.w3.org/2000/svg">
<circle cx="20" cy="20" r="20" fill="black"/>
<path d="M13.6963 22.2202H10.5371V17.7578H11.3545V21.4868H13.7758L13.6963 22.2202Z" fill="white"/>
<path d="M14.7873 18.2894C14.7873 18.534 14.6104 18.7113 14.3663 18.7113C14.1222 18.7113 13.9453 18.534 13.9453 18.2894C13.9453 18.0448 14.1161 17.8613 14.3663 17.8613C14.6165 17.8613 14.7873 18.0448 14.7873 18.2894ZM14.0002 19.0598H14.7324V22.2204H14.0002V19.0598Z" fill="white"/>
<path d="M15.25 22.2201V19.1027L15.5489 19.0354C15.6771 19.133 15.793 19.3041 15.8663 19.4629C16.0797 19.1942 16.4704 18.9922 16.958 18.9922C17.7021 18.9922 18.3733 19.4753 18.3733 20.3063V22.2196H17.678V20.4224C17.678 19.9702 17.2877 19.6459 16.8668 19.6459C16.5129 19.6459 15.9643 19.9147 15.9643 20.1963V22.2196H15.2505L15.25 22.2201Z" fill="white"/>
<path d="M18.8984 22.2201V19.1027L19.1974 19.0354C19.3256 19.133 19.4415 19.3041 19.5148 19.4629C19.7281 19.1942 20.1188 18.9922 20.6065 18.9922C21.3505 18.9922 22.0217 19.4753 22.0217 20.3063V22.2196H21.3264V20.4224C21.3264 19.9702 20.9362 19.6459 20.5152 19.6459C20.1614 19.6459 19.6127 19.9147 19.6127 20.1963V22.2196H18.899L18.8984 22.2201Z" fill="white"/>
<path d="M24.766 19.548C24.9793 19.1934 25.4613 18.992 25.9064 18.992C26.7237 18.992 27.3827 19.5604 27.3827 20.3672C27.3827 20.7403 27.1324 20.8565 26.8217 20.8565H25.0408C25.0772 21.3149 25.529 21.651 25.9254 21.651C26.2546 21.651 26.6145 21.4675 26.755 21.1802L27.2673 21.5225C26.9806 21.9748 26.572 22.2805 25.9069 22.2805C25.4557 22.2805 25.0162 22.1032 24.7604 21.706C24.5527 22.0791 24.1076 22.2929 23.5707 22.2929C22.6683 22.2929 22.3145 21.8833 22.3145 21.3026C22.3145 20.0979 23.8394 20.4099 24.3455 20.1658V20.0558C24.2481 19.7438 24.0404 19.6585 23.6989 19.6585C23.2841 19.6585 23.0831 19.7993 22.9241 19.9946L22.5216 19.5239C22.6862 19.2489 23.04 18.9863 23.6497 18.9863C24.1497 18.9863 24.5583 19.176 24.766 19.5486M24.3512 21.2722V20.6915C23.9548 20.8688 23.0277 20.71 23.0277 21.3031C23.0277 21.4927 23.1436 21.6762 23.6374 21.6762C23.9425 21.6762 24.2414 21.5112 24.3512 21.2727M25.0711 20.3251H26.7361C26.6627 19.952 26.3643 19.6344 25.9125 19.6344C25.4608 19.6344 25.126 19.9278 25.0711 20.3251Z" fill="white"/>
<path d="M30.7484 19.0605V22.1903L30.4494 22.2515C30.3274 22.1538 30.2115 21.9888 30.1382 21.8234C29.931 22.1045 29.5465 22.2941 29.0404 22.2941C28.3086 22.2941 27.6738 21.8172 27.6738 20.98V19.0605H28.3753V20.8639C28.3753 21.3161 28.7353 21.6404 29.1624 21.6404C29.5039 21.6404 30.0408 21.3593 30.0408 21.0962V19.0605H30.7484Z" fill="white"/>
<path d="M33.9079 19.6164L33.3526 20.0075C33.2669 19.8302 33.0234 19.6164 32.5229 19.6164C32.2055 19.6164 31.9312 19.7202 31.9312 19.9283C31.9312 20.1365 32.1994 20.2033 32.5291 20.2644C33.3767 20.4232 33.9992 20.5332 33.9992 21.2794C33.9992 22.0801 33.188 22.2821 32.566 22.2821C31.8461 22.2821 31.2851 21.9948 31.041 21.5426L31.6451 21.2065C31.7671 21.4023 32.0476 21.6587 32.5357 21.6587C32.8531 21.6587 33.3346 21.5426 33.3346 21.3103C33.3346 21.1206 33.1393 21.0471 32.8952 20.9865C32.0107 20.7727 31.2666 20.7116 31.2666 19.9104C31.2666 19.2685 31.7363 19.0059 32.566 19.0059C33.2921 19.0059 33.792 19.3055 33.9079 19.6169" fill="white"/>
<path d="M9.09549 19.4382C8.90526 18.9891 8.56221 18.617 8.12995 18.3898C7.77768 18.2048 7.38285 18.1231 6.98802 18.1534L6.96289 17.8235C7.41925 17.7886 7.87613 17.8831 8.28327 18.0969C8.7827 18.359 9.17907 18.7897 9.39905 19.3087L9.09549 19.4382Z" fill="white"/>
<path d="M7.96629 19.8921C7.88271 19.7092 7.74375 19.5627 7.56582 19.4692C7.4166 19.3905 7.24893 19.3556 7.08125 19.3684L7.05664 19.0385C7.28585 19.0215 7.51454 19.0693 7.71862 19.1762C7.96219 19.3042 8.1514 19.5041 8.26626 19.7539L7.96629 19.8921Z" fill="white"/>
<path d="M7.17056 18.7665C7.7787 18.7665 8.30326 19.1324 8.53606 19.6561L8.84423 19.5338C8.75398 19.3262 8.62528 19.1355 8.46068 18.971C8.1161 18.6257 7.65769 18.4355 7.17056 18.4355C7.11466 18.4355 7.05877 18.4381 7.00391 18.4433L7.03108 18.7732C7.07723 18.7691 7.12338 18.7665 7.17056 18.7665Z" fill="white"/>
<path d="M5.8224 21.4304V20.8903L6.72077 20.6107C6.69719 20.5809 6.67668 20.549 6.65975 20.5156L5.71421 20.8101V21.4304C5.61063 21.4551 5.5332 21.5481 5.5332 21.6596C5.5332 21.7896 5.63883 21.8955 5.76856 21.8955C5.89829 21.8955 6.00392 21.7896 6.00392 21.6596C6.00392 21.5481 5.9265 21.4551 5.82292 21.4304H5.8224ZM5.76805 21.7871C5.69831 21.7871 5.6414 21.73 5.6414 21.6601C5.6414 21.5902 5.69831 21.5332 5.76805 21.5332C5.83779 21.5332 5.8947 21.5902 5.8947 21.6601C5.8947 21.73 5.83779 21.7871 5.76805 21.7871Z" fill="white"/>
<path d="M7.01823 21.7556V20.8013C7.00438 20.7977 6.99003 20.7941 6.97618 20.7895C6.95311 20.7818 6.93106 20.7725 6.90952 20.7617V21.7556C6.80594 21.7803 6.72852 21.8738 6.72852 21.9848C6.72852 22.1149 6.83415 22.2207 6.96388 22.2207C7.09361 22.2207 7.19924 22.1149 7.19924 21.9848C7.19924 21.8733 7.12181 21.7803 7.01823 21.7556ZM6.96388 22.1123C6.89414 22.1123 6.83722 22.0552 6.83722 21.9854C6.83722 21.9155 6.89414 21.8584 6.96388 21.8584C7.03361 21.8584 7.09053 21.9155 7.09053 21.9854C7.09053 22.0552 7.03361 22.1123 6.96388 22.1123Z" fill="white"/>
<path d="M6.84741 20.7247C6.81613 20.7041 6.78742 20.6805 6.76178 20.6543L6.51565 21.124C6.48437 21.1086 6.4495 21.0999 6.41309 21.0999C6.28336 21.0999 6.17773 21.2057 6.17773 21.3358C6.17773 21.4658 6.28336 21.5716 6.41309 21.5716C6.54283 21.5716 6.64846 21.4658 6.64846 21.3358C6.64846 21.2828 6.63051 21.234 6.60128 21.1949L6.84792 20.7247H6.84741ZM6.41258 21.4632C6.34285 21.4632 6.28593 21.4062 6.28593 21.3363C6.28593 21.2664 6.34285 21.2093 6.41258 21.2093C6.48232 21.2093 6.53924 21.2664 6.53924 21.3363C6.53924 21.4062 6.48232 21.4632 6.41258 21.4632Z" fill="white"/>
<path d="M7.31826 19.7485C7.26134 19.73 7.20391 19.7207 7.14751 19.7207C6.9183 19.7207 6.70499 19.8667 6.6291 20.0969C6.58192 20.2408 6.59731 20.3898 6.66038 20.5147C6.6773 20.5481 6.69781 20.58 6.7214 20.6098C6.7337 20.6252 6.74704 20.6396 6.76088 20.654C6.78703 20.6802 6.81575 20.7033 6.84651 20.7244C6.86651 20.7377 6.88753 20.7496 6.90958 20.7604C6.93112 20.7706 6.95317 20.7804 6.97624 20.7881C6.99009 20.7927 7.00445 20.7968 7.01829 20.7999C7.06136 20.8107 7.10444 20.8153 7.147 20.8153C7.3762 20.8153 7.58951 20.6694 7.6654 20.4392C7.75975 20.1524 7.60387 19.843 7.31775 19.7485H7.31826Z" fill="white"/>
<path d="M6.50447 20.1259L5.81018 20.1233V20.0355C5.81018 19.3447 6.27936 18.762 6.91468 18.5898L6.87469 18.2578C6.55164 18.3354 6.25526 18.5009 6.01477 18.7424C5.67019 19.0878 5.48047 19.5472 5.48047 20.0355V20.4528L6.51729 20.4564C6.48498 20.3489 6.48037 20.2359 6.50498 20.1254" fill="white"/>
<path d="M9.13057 19.9853C9.12698 19.8491 9.10801 19.7154 9.0757 19.5859L8.76548 19.7098C8.78906 19.8151 8.80137 19.9246 8.80137 20.0372V20.088L9.15928 20.6153L8.82034 20.7376L8.56499 21.673H7.85839L7.4051 20.8764C7.32562 20.9103 7.23845 20.9288 7.14821 20.9288C7.11539 20.9288 7.08309 20.9262 7.05078 20.9211L7.66662 22.0039H8.81675L9.09314 20.991L9.67103 20.7823L9.13006 19.9853H9.13057Z" fill="white"/>
</svg>
